<svg width="37" height="36" viewBox="0 0 37 36" fill="none" xmlns="http://www.w3.org/2000/svg">
<path fill-rule="evenodd" clip-rule="evenodd" d="M36.2617 18C36.2617 27.9411 28.2028 36 18.2617 36C8.32059 36 0.261719 27.9411 0.261719 18C0.261719 8.05887 8.32059 0 18.2617 0C28.2028 0 36.2617 8.05887 36.2617 18ZM9.55461 26.7071C9.16409 26.3166 9.16409 25.6834 9.55461 25.2929L16.8475 18L9.55461 10.7071C9.16409 10.3166 9.16409 9.68342 9.55461 9.29289C9.94514 8.90237 10.5783 8.90237 10.9688 9.29289L18.2617 16.5858L25.5546 9.29289C25.9451 8.90237 26.5783 8.90237 26.9688 9.29289C27.3594 9.68342 27.3594 10.3166 26.9688 10.7071L19.6759 18L26.9688 25.2929C27.3594 25.6834 27.3594 26.3166 26.9688 26.7071C26.5783 27.0976 25.9451 27.0976 25.5546 26.7071L18.2617 19.4142L10.9688 26.7071C10.5783 27.0976 9.94514 27.0976 9.55461 26.7071Z" fill="#D01E1E"/>
</svg>
