<svg width="17" height="17" viewBox="0 0 17 17" fill="none" xmlns="http://www.w3.org/2000/svg">
<path fill-rule="evenodd" clip-rule="evenodd" d="M13.9564 6.70752L15.5428 5.12117C15.9313 4.73263 16.1256 4.53836 16.2481 4.33999C16.646 3.69582 16.646 2.8822 16.2481 2.23803C16.1256 2.03967 15.9313 1.8454 15.5428 1.45686L15.5428 1.45685C15.1542 1.06831 14.96 0.874045 14.7616 0.751524C14.1174 0.353659 13.3038 0.353659 12.6596 0.751524C12.4613 0.874045 12.267 1.06831 11.8785 1.45685L10.2704 3.06491C11.1505 4.57915 12.4214 5.83976 13.9564 6.70752ZM8.81594 4.51937L2.65797 10.6773L2.65796 10.6773C2.23291 11.1024 2.02038 11.3149 1.88065 11.576C1.74091 11.8371 1.68197 12.1318 1.56408 12.7213L1.0326 15.3787C0.96608 15.7113 0.932819 15.8776 1.02743 15.9722C1.12203 16.0668 1.28834 16.0335 1.62095 15.967L4.27832 15.4355C4.86777 15.3177 5.1625 15.2587 5.4236 15.119C5.68469 14.9792 5.89722 14.7667 6.32228 14.3417L12.4981 8.16587C11.0141 7.23348 9.7578 5.98613 8.81594 4.51937Z" fill="#FCF6F5"/>
</svg>
