<svg width="16" height="20" viewBox="0 0 16 20" fill="none" xmlns="http://www.w3.org/2000/svg">
<path fill-rule="evenodd" clip-rule="evenodd" d="M8.39827 18.9971C10.0148 18.1677 16 14.7049 16 8.90625C16 4.48797 12.4183 0.90625 8 0.90625C3.58172 0.90625 0 4.48797 0 8.90625C0 14.7049 5.98521 18.1677 7.60173 18.9971C7.85516 19.1272 8.14484 19.1272 8.39827 18.9971ZM7.99888 12.3337C9.89243 12.3337 11.4275 10.7987 11.4275 8.90513C11.4275 7.01159 9.89243 5.47656 7.99888 5.47656C6.10534 5.47656 4.57031 7.01159 4.57031 8.90513C4.57031 10.7987 6.10534 12.3337 7.99888 12.3337Z" fill="#FCF6F5"/>
</svg>
