<svg width="18" height="18" viewBox="0 0 18 18" fill="none" xmlns="http://www.w3.org/2000/svg">
<path d="M8.99922 4.69922C8.99922 4.45927 8.99922 4.33929 9.08189 4.26482C9.16455 4.19034 9.27581 4.20197 9.49833 4.22524C10.1664 4.29508 10.8143 4.50459 11.3992 4.8423C12.1289 5.26358 12.7349 5.86953 13.1561 6.59922C13.5774 7.32891 13.7992 8.15664 13.7992 8.99922C13.7992 9.8418 13.5774 10.6695 13.1561 11.3992C12.7349 12.1289 12.1289 12.7349 11.3992 13.1561C10.6695 13.5774 9.84179 13.7992 8.99922 13.7992C8.15664 13.7992 7.32891 13.5774 6.59922 13.1561C6.0143 12.8184 5.5089 12.3621 5.11438 11.8184C4.98298 11.6374 4.91727 11.5468 4.94044 11.438C4.9636 11.3292 5.0675 11.2692 5.27531 11.1492L8.74922 9.14356C8.87123 9.07311 8.93223 9.03789 8.96573 8.97988C8.99922 8.92187 8.99922 8.85143 8.99922 8.71054V4.69922Z" fill="#FCF6F5"/>
<circle cx="9.00156" cy="9.00156" r="7.4" stroke="#FCF6F5" stroke-width="2"/>
</svg>
